<?xml version="1.0" encoding="UTF-8"?>
<svg width="181px" height="180px" viewBox="0 0 181 180" version="1.1" xmlns="http://www.w3.org/2000/svg" xmlns:xlink="http://www.w3.org/1999/xlink" xmlns:sketch="http://www.bohemiancoding.com/sketch/ns">
    <!-- Generator: Sketch 3.4.2 (15855) - http://www.bohemiancoding.com/sketch -->
    <title>ohia.ai_logo</title>
    <desc>Created with Sketch.</desc>
    <defs></defs>
    <g id="Page-1" stroke="none" stroke-width="1" fill="none" fill-rule="evenodd" sketch:type="MSPage">
        <path d="M62.7374782,140.696378 C106.429192,137.818392 118.98206,134.286556 153.057791,100.883878" id="Path-4" stroke="#FFFFFF" stroke-width="5" sketch:type="MSShapeGroup" transform="translate(107.897634, 120.790128) rotate(16.000000) translate(-107.897634, -120.790128) "></path>
        <path d="M53.3526971,35.9358083 C51.1264976,76.6307207 33.3986632,93.2722409 71.9755234,121.83034" id="Path-6" stroke="#FFFFFF" stroke-width="7" sketch:type="MSShapeGroup" transform="translate(59.668317, 78.883074) rotate(16.000000) translate(-59.668317, -78.883074) "></path>
        <path d="M16.7554501,53.1099703 C17.7204566,77.6306003 25.9403348,94.8621349 60.0741095,108.214953" id="Path-7" stroke="#FFFFFF" stroke-width="5" sketch:type="MSShapeGroup" transform="translate(38.414780, 80.662461) rotate(16.000000) translate(-38.414780, -80.662461) "></path>
        <path d="M84.9216942,27.4530958 C84.3725544,84.8659512 91.5804391,89.5339988 69.630453,128.603097" id="Path-10" stroke="#FFFFFF" stroke-width="9" sketch:type="MSShapeGroup" transform="translate(77.630453, 78.028097) rotate(16.000000) translate(-77.630453, -78.028097) "></path>
        <path d="M119.228591,40.1863443 C118.782592,91.6442108 124.298329,106.211859 69.9454489,133.787747" id="Path-11" stroke="#FFFFFF" stroke-width="7" sketch:type="MSShapeGroup" transform="translate(94.587020, 86.987046) rotate(16.000000) translate(-94.587020, -86.987046) "></path>
        <path d="M72.0145165,138.825583 C107.193095,134.408143 133.821266,106.637947 150.768423,76.8607394" id="Path-12" stroke="#FFFFFF" stroke-width="7" sketch:type="MSShapeGroup" transform="translate(111.391470, 107.843161) rotate(16.000000) translate(-111.391470, -107.843161) "></path>
        <circle id="Oval-1" stroke="#6AD3B5" fill="#FFFFFF" sketch:type="MSShapeGroup" cx="50" cy="124.207187" r="6"></circle>
        <ellipse id="Oval-1" stroke="#6AD3B5" fill="#FFFFFF" sketch:type="MSShapeGroup" cx="39" cy="125.207187" rx="8" ry="8"></ellipse>
        <ellipse id="Oval-1" stroke="#6AD3B5" fill="#FFFFFF" sketch:type="MSShapeGroup" cx="53" cy="133.207187" rx="8" ry="8"></ellipse>
        <ellipse id="Oval-1" stroke="#6AD3B5" fill="#FFFFFF" sketch:type="MSShapeGroup" cx="38" cy="137.207187" rx="8" ry="8"></ellipse>
        <circle id="Oval-1" stroke="#6AD3B5" fill="#FFFFFF" sketch:type="MSShapeGroup" cx="49" cy="143.207187" r="6"></circle>
        <ellipse id="Oval-6" fill="#FBF19F" sketch:type="MSShapeGroup" cx="25" cy="47.7071867" rx="5" ry="2.5"></ellipse>
        <ellipse id="Oval-6" fill="#FBF19F" sketch:type="MSShapeGroup" transform="translate(158.442603, 88.174916) rotate(15.000000) translate(-158.442603, -88.174916) " cx="158.442603" cy="88.1749155" rx="6" ry="2.5"></ellipse>
        <ellipse id="Oval-6" fill="#FBF19F" sketch:type="MSShapeGroup" transform="translate(156.476677, 113.916096) rotate(15.000000) translate(-156.476677, -113.916096) " cx="156.476677" cy="113.916096" rx="5" ry="2.5"></ellipse>
        <ellipse id="Oval-6" fill="#FBF19F" sketch:type="MSShapeGroup" transform="translate(131.442603, 49.174916) rotate(15.000000) translate(-131.442603, -49.174916) " cx="131.442603" cy="49.1749155" rx="6" ry="2.5"></ellipse>
        <ellipse id="Oval-6" fill="#FBF19F" sketch:type="MSShapeGroup" transform="translate(98.408528, 32.433735) rotate(15.000000) translate(-98.408528, -32.433735) " cx="98.4085284" cy="32.4337346" rx="7" ry="2.5"></ellipse>
        <ellipse id="Oval-6" fill="#FBF19F" sketch:type="MSShapeGroup" transform="translate(65.442603, 35.174916) rotate(15.000000) translate(-65.442603, -35.174916) " cx="65.4426026" cy="35.1749155" rx="6" ry="2.5"></ellipse>
    </g>
</svg>